<?xml version="1.0" encoding="UTF-8"?>
<svg id="Camada_1" data-name="Camada 1" xmlns="http://www.w3.org/2000/svg" viewBox="0 0 595.62 400.09">
  <defs>
    <style>
      .cls-1 {
        fill: #f2e500;
      }

      .cls-1, .cls-2, .cls-3, .cls-4, .cls-5, .cls-6, .cls-7, .cls-8, .cls-9, .cls-10, .cls-11, .cls-12 {
        stroke-width: 0px;
      }

      .cls-2 {
        fill: #364f9e;
      }

      .cls-3 {
        fill: #66b32e;
      }

      .cls-4 {
        fill: #624595;
      }

      .cls-5 {
        fill: #e5231f;
      }

      .cls-6 {
        fill: #4cad33;
      }

      .cls-7 {
        fill: #6ec7d9;
      }

      .cls-8 {
        fill: #ec651a;
      }

      .cls-9 {
        fill: #9ec41a;
      }

      .cls-10 {
        fill: #a8dae5;
      }

      .cls-11 {
        fill: #fff;
      }

      .cls-12 {
        fill: #0d9a39;
      }
    </style>
  </defs>
  <ellipse class="cls-11" cx="296.81" cy="391.09" rx="12.83" ry="9"/>
  <rect class="cls-11" x="242.94" y="215.74" width="107.23" height="150.89" rx="18.13" ry="18.13"/>
  <rect class="cls-11" x="286.15" y="192" width="21.77" height="9" rx="4.5" ry="4.5"/>
  <path class="cls-5" d="M217.59,198.16c-19.96,1.52-38.56,3.33-55.81,5.32-3.82,53.15-4.51,115.82,1.65,185.39,17.6,1.99,36.33,3.73,56.02,5.03-3.85-75.89-3.8-141.35-1.87-195.75Z"/>
  <path class="cls-6" d="M417.91,93.95c-15.71-4.11-32.44-7.67-50.08-10.37,2.7,25.57,5.3,57.31,7.02,94.97,19.38,1.32,37.76,3.21,55.04,5.48-3.13-35-7.53-65.32-11.98-90.08Z"/>
  <path class="cls-12" d="M295.62,176.67c19.19-.37,40.72-.1,58.52.68-1.91-35.67-4.02-68.83-5.9-96.44-15.91-1.73-35.46-2.72-52.62-2.76-17.15.04-33.71,1.03-49.62,2.76-1.89,27.61-3.99,60.78-5.9,96.44,17.8-.77,36.33-1.05,55.52-.68Z"/>
  <path class="cls-2" d="M236.55,6.13c-15.06,3.11-29.7,7.37-43.83,12.66-.14.44-6.43,20.06-13.55,55.12,17.87-5.54,34.24-9.38,48.73-12.02,4.52-36.67,8.64-55.64,8.66-55.75Z"/>
  <path class="cls-6" d="M175.33,93.95c-4.44,24.77-8.84,55.08-11.98,90.08,17.27-2.27,35.66-4.16,55.04-5.48,1.73-37.66,4.33-69.4,7.02-94.97-17.64,2.69-34.37,6.25-50.08,10.37Z"/>
  <path class="cls-8" d="M138.95,206.31c-21.05,2.8-39.74,5.82-56.05,8.83-5.79,46.01-7.08,100.51,1.15,162.05,16.8,3.06,35.97,6.16,57.12,8.96-7.15-68.16-6.51-128.72-2.23-179.83Z"/>
  <path class="cls-8" d="M452.03,386.42c21.07-2.75,40.23-5.8,57.1-8.84,8.29-61.7,7.01-116.33,1.21-162.44-16.3-3-34.99-6.03-56.05-8.83,4.29,51.18,4.93,111.83-2.26,180.1Z"/>
  <path class="cls-9" d="M63.25,203.28c4.85-29.62,11.71-54.51,18.84-74.73-20.82,10.19-36.35,19.63-45.69,25.75-11.15,20.33-19.98,42.12-26.15,65,10.41-3.72,28.49-9.69,53.01-16.01Z"/>
  <path class="cls-3" d="M154.75,99.81c-18.8,5.79-35.86,12.26-50.96,18.77-6.88,21.8-13.62,48.42-18.46,79.35,16.46-3.74,35.02-7.41,55.42-10.63,3.61-34.13,8.75-63.5,13.99-87.49Z"/>
  <path class="cls-7" d="M109.39,101.89c17.41-8.6,34.1-15.61,49.85-21.31,8.78-35.28,16.7-54.63,16.85-54.99-15.28,6.81-29.87,14.87-43.65,24.06-.2.34-11.08,18.66-23.04,52.24Z"/>
  <path class="cls-7" d="M460.79,49.63h0c-14.76-9.76-27.2-17.02-43.64-24.05h0s7.99,19.39,16.85,55c15.75,5.69,32.44,12.7,49.85,21.31-12.08-33.89-23.06-52.26-23.06-52.26Z"/>
  <path class="cls-2" d="M400.51,18.77h0c-14.63-5.42-28.35-10.06-43.96-13.14l.13.49s4.13,18.98,8.66,55.76c14.48,2.64,30.85,6.48,48.73,12.02-7.2-35.46-13.56-55.13-13.56-55.13Z"/>
  <path class="cls-1" d="M60.87,219.46c-26.87,5.62-44.9,10.71-53.98,13.57-4.5,20.55-6.89,41.88-6.89,63.78s2.33,42.69,6.72,62.99c.4.12,20.34,5.99,54.66,13-7.3-59.89-6.03-110.96-.5-153.35Z"/>
  <path class="cls-4" d="M247.55,58.83c26.36-3.36,43.58-2.55,48.07-2.24,4.49-.31,23.71-1.12,50.07,2.24-2.44-34.09-4.22-55.43-4.22-55.43h0c-14.02-2.03-30.07-3.4-44.66-3.4-15.31,0-30.35,1.16-45.04,3.4,0,.03-1.79,21.36-4.22,55.43Z"/>
  <path class="cls-1" d="M588.9,233.85c-7.95-2.61-26.85-8.18-56.54-14.39,5.54,42.49,6.81,93.72-.56,153.8,35.78-7.21,56.69-13.33,57.09-13.45,4.39-20.31,6.72-41.38,6.72-62.99s-2.33-42.67-6.71-62.96Z"/>
  <path class="cls-10" d="M87.92,113.13c13.39-33.1,26.07-49.85,26.63-50.59-27.42,21.37-50.99,47.44-69.49,77.01,14.6-9.94,28.92-18.7,42.86-26.43Z"/>
  <path class="cls-3" d="M438.49,99.81c5.25,23.99,10.39,53.36,13.99,87.49,20.41,3.22,38.97,6.89,55.42,10.63-4.83-30.93-11.58-57.55-18.46-79.35-15.11-6.51-32.17-12.97-50.96-18.77Z"/>
  <path class="cls-10" d="M478.66,62.52s12.96,16.75,26.65,50.61c15.27,8.46,30.98,18.15,47.02,29.27-19.88-32.57-45.86-61.01-76.35-83.74l2.68,3.86Z"/>
  <path class="cls-5" d="M373.77,394.05c19.66-1.27,38.38-2.98,56.01-4.95,6.19-69.66,5.5-132.41,1.68-185.62-17.24-1.99-35.85-3.8-55.81-5.32,1.93,54.43,1.98,119.94-1.88,195.89Z"/>
  <path class="cls-9" d="M560.55,156.77c-8.61-5.83-25.54-16.54-49.41-28.22,7.13,20.21,13.99,45.11,18.84,74.73,26.75,6.9,45.82,13.38,55.65,16.97-5.94-22.3-14.4-43.57-25.07-63.48Z"/>
</svg>